# xmcd
#
# Track frame offsets:
#   150
#   17992
#   32126
#   45347
#   60440
#   87029
#   105079
#   115345
#   136655
#   151010
#
# Disc length: 2324 seconds
#
# Revision: 0
# Processed by: cddbd v1.5.2PL0 Copyright (c) Steve Scherf et al.
# Submitted via: GXTranscoder 2.0.1939
#
DISCID=6609120a
DTITLE=STS - Grenzenlos
DYEAR=1900
DGENRE=Country
TTITLE0=Kalt und Kälter
TTITLE1=Gö, du bleibst heut Nacht bei mir
TTITLE2=Wunder meiner Seligkeit
TTITLE3=Irgendwann bleib i dann dort
TTITLE4=Zigeuner
TTITLE5=So frei, wie mann sein kann
TTITLE6=Komm
TTITLE7=Grossvater
TTITLE8=Anfach Fort
TTITLE9=Herr Lohengrin
EXTD=
EXTT0=
EXTT1=
EXTT2=
EXTT3=
EXTT4=
EXTT5=
EXTT6=
EXTT7=
EXTT8=
EXTT9=
PLAYORDER=
